<svg xmlns="http://www.w3.org/2000/svg" xmlns:xlink="http://www.w3.org/1999/xlink" width="890" height="624.46"><rect width="890" height="624.46" class="a" rx="5" ry="5"/><svg x="0%" y="0%"><circle cx="20" cy="20" r="6" fill="#ff5f58"/><circle cx="40" cy="20" r="6" fill="#ffbd2e"/><circle cx="60" cy="20" r="6" fill="#18c132"/></svg><svg xmlns="http://www.w3.org/2000/svg" xmlns:xlink="http://www.w3.org/1999/xlink" width="850" height="564.46" x="15" y="50" viewBox="0 0 85 56.446"><style>@keyframes j{0%{transform:translateX(0)}6.19%{transform:translateX(-85px)}6.22%{transform:translateX(-170px)}6.24%{transform:translateX(-255px)}6.25%{transform:translateX(-340px)}9.68%{transform:translateX(-425px)}11.38%{transform:translateX(-510px)}11.89%{transform:translateX(-595px)}12.94%{transform:translateX(-680px)}13.68%{transform:translateX(-765px)}14.9%{transform:translateX(-850px)}15.62%{transform:translateX(-935px)}16.33%{transform:translateX(-1020px)}17.2%{transform:translateX(-1105px)}18.27%{transform:translateX(-1190px)}19.48%{transform:translateX(-1275px)}20.23%{transform:translateX(-1360px)}23.26%{transform:translateX(-1445px)}24.27%{transform:translateX(-1530px)}25.7%{transform:translateX(-1615px)}26.53%{transform:translateX(-1700px)}27.69%{transform:translateX(-1785px)}28.57%{transform:translateX(-1870px)}29.29%{transform:translateX(-1955px)}31.4%{transform:translateX(-2040px)}32.5%{transform:translateX(-2125px)}33.11%{transform:translateX(-2210px)}34.01%{transform:translateX(-2295px)}35.22%{transform:translateX(-2380px)}35.85%{transform:translateX(-2465px)}36.51%{transform:translateX(-2550px)}37.3%{transform:translateX(-2635px)}37.8%{transform:translateX(-2720px)}38.72%{transform:translateX(-2805px)}40.15%{transform:translateX(-2890px)}41.81%{transform:translateX(-2975px)}42.66%{transform:translateX(-3060px)}43.23%{transform:translateX(-3145px)}44.26%{transform:translateX(-3230px)}46.62%{transform:translateX(-3400px)}46.63%{transform:translateX(-3485px)}55.78%{transform:translateX(-3570px)}71.35%{transform:translateX(-3655px)}73.61%{transform:translateX(-3740px)}73.62%{transform:translateX(-3825px)}73.67%{transform:translateX(-3910px)}73.69%{transform:translateX(-4165px)}85.93%{transform:translateX(-4250px)}87.65%{transform:translateX(-4335px)}88.98%{transform:translateX(-4420px)}90.13%{transform:translateX(-4505px)}99.99%{transform:translateX(-4590px)}}.a{fill:#282d35}.f,.g{fill:#b9c0cb;white-space:pre}.g{fill:#a8cc8c}</style><g font-family="Monaco,Consolas,Menlo,'Bitstream Vera Sans Mono','Powerline Symbols',monospace" font-size="1.67"><defs><symbol id="1"><text y="1.67" class="f">bbiggs%</text></symbol><symbol id="2"><text y="1.67" class="f">bbiggs%</text><text x="8.016" y="1.67" class="f">ktime</text></symbol><symbol id="3"><text y="1.67" class="f">bbiggs%</text><text x="8.016" y="1.67" class="f">ktime</text><text x="14.028" y="1.67" class="f">apply</text></symbol><symbol id="4"><text y="1.67" class="f">bbiggs%</text><text x="8.016" y="1.67" class="f">ktime</text><text x="14.028" y="1.67" class="f">apply</text><text x="20.04" y="1.67" class="f">--file</text></symbol><symbol id="5"><text y="1.67" class="f">bbiggs%</text><text x="8.016" y="1.67" class="f">ktime</text><text x="14.028" y="1.67" class="f">apply</text><text x="20.04" y="1.67" class="f">--file</text><text x="27.054" y="1.67" class="f">pod-cached.yaml</text></symbol><symbol id="6"><text x="1.002" y="1.67" class="g">INFO</text><text x="6.012" y="1.67" class="f">ktime::cli:</text><text x="18.036" y="1.67" class="f">Pod</text><text x="22.044" y="1.67" class="f">`cached`</text><text x="31.062" y="1.67" class="f">applied</text></symbol><symbol id="7"><text x="1.002" y="1.67" class="g">INFO</text><text x="6.012" y="1.67" class="f">ktime::cli:</text><text x="18.036" y="1.67" class="f">Pod</text><text x="22.044" y="1.67" class="f">`cached`</text><text x="31.062" y="1.67" class="f">=&gt;</text><text x="34.068" y="1.67" class="f">Running</text></symbol><symbol id="8"><text y="1.67" class="f">Initialize:</text><text x="12.024" y="1.67" class="f">0s</text></symbol><symbol id="9"><text y="1.67" class="f">Pod</text><text x="4.008" y="1.67" class="f">ready</text><text x="10.02" y="1.67" class="f">to</text><text x="13.026" y="1.67" class="f">start</text><text x="19.038" y="1.67" class="f">containers:</text><text x="31.062" y="1.67" class="f">2s</text></symbol><symbol id="10"><text y="1.67" class="f">Containers</text><text x="11.022" y="1.67" class="f">ready:</text><text x="18.036" y="1.67" class="f">2s</text></symbol><symbol id="11"><text y="1.67" class="f">Ready:</text><text x="7.014" y="1.67" class="f">2s</text></symbol><symbol id="12"><text y="1.67" class="f">bbiggs%</text><text x="8.016" y="1.67" class="f">exit</text></symbol><symbol id="a"><path fill="transparent" d="M0 0h85v26H0z"/></symbol><symbol id="b"><path fill="#6f7683" d="M0 0h1.102v2.171H0z"/></symbol></defs><path d="M0 0h85v56.446H0z" class="a"/><g style="animation-duration:17.227748s;animation-iteration-count:infinite;animation-name:j;animation-timing-function:steps(1,end)"><svg width="4845"><svg><use xlink:href="#a"/><use x="-.004" xlink:href="#b"/></svg><svg x="85"><use xlink:href="#a"/><use x="-.004" xlink:href="#b"/></svg><svg x="170"><use xlink:href="#a"/><use x="-.004" xlink:href="#b"/></svg><svg x="255"><use xlink:href="#a"/><use x="-.004" xlink:href="#b"/></svg><svg x="340"><use xlink:href="#a"/><use x="7.996" xlink:href="#b"/><use xlink:href="#1"/></svg><svg x="425"><use xlink:href="#a"/><use x="8.996" xlink:href="#b"/><text y="1.67" class="f">bbiggs%</text><text x="8.016" y="1.67" class="f">k</text></svg><svg x="510"><use xlink:href="#a"/><use x="9.996" xlink:href="#b"/><text y="1.67" class="f">bbiggs%</text><text x="8.016" y="1.67" class="f">kt</text></svg><svg x="595"><use xlink:href="#a"/><use x="10.996" xlink:href="#b"/><text y="1.67" class="f">bbiggs%</text><text x="8.016" y="1.67" class="f">kti</text></svg><svg x="680"><use xlink:href="#a"/><use x="11.996" xlink:href="#b"/><text y="1.67" class="f">bbiggs%</text><text x="8.016" y="1.67" class="f">ktim</text></svg><svg x="765"><use xlink:href="#a"/><use x="12.996" xlink:href="#b"/><use xlink:href="#2"/></svg><svg x="850"><use xlink:href="#a"/><use x="13.996" xlink:href="#b"/><use xlink:href="#2"/></svg><svg x="935"><use xlink:href="#a"/><use x="14.996" xlink:href="#b"/><text y="1.67" class="f">bbiggs%</text><text x="8.016" y="1.67" class="f">ktime</text><text x="14.028" y="1.67" class="f">a</text></svg><svg x="1020"><use xlink:href="#a"/><use x="15.996" xlink:href="#b"/><text y="1.67" class="f">bbiggs%</text><text x="8.016" y="1.67" class="f">ktime</text><text x="14.028" y="1.67" class="f">ap</text></svg><svg x="1105"><use xlink:href="#a"/><use x="16.996" xlink:href="#b"/><text y="1.67" class="f">bbiggs%</text><text x="8.016" y="1.67" class="f">ktime</text><text x="14.028" y="1.67" class="f">app</text></svg><svg x="1190"><use xlink:href="#a"/><use x="17.996" xlink:href="#b"/><text y="1.67" class="f">bbiggs%</text><text x="8.016" y="1.67" class="f">ktime</text><text x="14.028" y="1.67" class="f">appl</text></svg><svg x="1275"><use xlink:href="#a"/><use x="18.996" xlink:href="#b"/><use xlink:href="#3"/></svg><svg x="1360"><use xlink:href="#a"/><use x="19.996" xlink:href="#b"/><use xlink:href="#3"/></svg><svg x="1445"><use xlink:href="#a"/><use x="20.996" xlink:href="#b"/><text y="1.67" class="f">bbiggs%</text><text x="8.016" y="1.67" class="f">ktime</text><text x="14.028" y="1.67" class="f">apply</text><text x="20.04" y="1.67" class="f">-</text></svg><svg x="1530"><use xlink:href="#a"/><use x="21.996" xlink:href="#b"/><text y="1.67" class="f">bbiggs%</text><text x="8.016" y="1.67" class="f">ktime</text><text x="14.028" y="1.67" class="f">apply</text><text x="20.04" y="1.67" class="f">--</text></svg><svg x="1615"><use xlink:href="#a"/><use x="22.996" xlink:href="#b"/><text y="1.67" class="f">bbiggs%</text><text x="8.016" y="1.67" class="f">ktime</text><text x="14.028" y="1.67" class="f">apply</text><text x="20.04" y="1.67" class="f">--f</text></svg><svg x="1700"><use xlink:href="#a"/><use x="23.996" xlink:href="#b"/><text y="1.67" class="f">bbiggs%</text><text x="8.016" y="1.67" class="f">ktime</text><text x="14.028" y="1.67" class="f">apply</text><text x="20.04" y="1.67" class="f">--fi</text></svg><svg x="1785"><use xlink:href="#a"/><use x="24.996" xlink:href="#b"/><text y="1.67" class="f">bbiggs%</text><text x="8.016" y="1.67" class="f">ktime</text><text x="14.028" y="1.67" class="f">apply</text><text x="20.04" y="1.67" class="f">--fil</text></svg><svg x="1870"><use xlink:href="#a"/><use x="25.996" xlink:href="#b"/><use xlink:href="#4"/></svg><svg x="1955"><use xlink:href="#a"/><use x="26.996" xlink:href="#b"/><use xlink:href="#4"/></svg><svg x="2040"><use xlink:href="#a"/><use x="27.996" xlink:href="#b"/><text y="1.67" class="f">bbiggs%</text><text x="8.016" y="1.67" class="f">ktime</text><text x="14.028" y="1.67" class="f">apply</text><text x="20.04" y="1.67" class="f">--file</text><text x="27.054" y="1.67" class="f">p</text></svg><svg x="2125"><use xlink:href="#a"/><use x="28.996" xlink:href="#b"/><text y="1.67" class="f">bbiggs%</text><text x="8.016" y="1.67" class="f">ktime</text><text x="14.028" y="1.67" class="f">apply</text><text x="20.04" y="1.67" class="f">--file</text><text x="27.054" y="1.67" class="f">po</text></svg><svg x="2210"><use xlink:href="#a"/><use x="29.996" xlink:href="#b"/><text y="1.67" class="f">bbiggs%</text><text x="8.016" y="1.67" class="f">ktime</text><text x="14.028" y="1.67" class="f">apply</text><text x="20.04" y="1.67" class="f">--file</text><text x="27.054" y="1.67" class="f">pod</text></svg><svg x="2295"><use xlink:href="#a"/><use x="30.996" xlink:href="#b"/><text y="1.67" class="f">bbiggs%</text><text x="8.016" y="1.67" class="f">ktime</text><text x="14.028" y="1.67" class="f">apply</text><text x="20.04" y="1.67" class="f">--file</text><text x="27.054" y="1.67" class="f">pod-</text></svg><svg x="2380"><use xlink:href="#a"/><use x="31.996" xlink:href="#b"/><text y="1.67" class="f">bbiggs%</text><text x="8.016" y="1.67" class="f">ktime</text><text x="14.028" y="1.67" class="f">apply</text><text x="20.04" y="1.67" class="f">--file</text><text x="27.054" y="1.67" class="f">pod-c</text></svg><svg x="2465"><use xlink:href="#a"/><use x="32.996" xlink:href="#b"/><text y="1.67" class="f">bbiggs%</text><text x="8.016" y="1.67" class="f">ktime</text><text x="14.028" y="1.67" class="f">apply</text><text x="20.04" y="1.67" class="f">--file</text><text x="27.054" y="1.67" class="f">pod-ca</text></svg><svg x="2550"><use xlink:href="#a"/><use x="33.996" xlink:href="#b"/><text y="1.67" class="f">bbiggs%</text><text x="8.016" y="1.67" class="f">ktime</text><text x="14.028" y="1.67" class="f">apply</text><text x="20.04" y="1.67" class="f">--file</text><text x="27.054" y="1.67" class="f">pod-cac</text></svg><svg x="2635"><use xlink:href="#a"/><use x="34.996" xlink:href="#b"/><text y="1.67" class="f">bbiggs%</text><text x="8.016" y="1.67" class="f">ktime</text><text x="14.028" y="1.67" class="f">apply</text><text x="20.04" y="1.67" class="f">--file</text><text x="27.054" y="1.67" class="f">pod-cach</text></svg><svg x="2720"><use xlink:href="#a"/><use x="35.996" xlink:href="#b"/><text y="1.67" class="f">bbiggs%</text><text x="8.016" y="1.67" class="f">ktime</text><text x="14.028" y="1.67" class="f">apply</text><text x="20.04" y="1.67" class="f">--file</text><text x="27.054" y="1.67" class="f">pod-cache</text></svg><svg x="2805"><use xlink:href="#a"/><use x="36.996" xlink:href="#b"/><text y="1.67" class="f">bbiggs%</text><text x="8.016" y="1.67" class="f">ktime</text><text x="14.028" y="1.67" class="f">apply</text><text x="20.04" y="1.67" class="f">--file</text><text x="27.054" y="1.67" class="f">pod-cached</text></svg><svg x="2890"><use xlink:href="#a"/><use x="37.996" xlink:href="#b"/><text y="1.67" class="f">bbiggs%</text><text x="8.016" y="1.67" class="f">ktime</text><text x="14.028" y="1.67" class="f">apply</text><text x="20.04" y="1.67" class="f">--file</text><text x="27.054" y="1.67" class="f">pod-cached.</text></svg><svg x="2975"><use xlink:href="#a"/><use x="38.996" xlink:href="#b"/><text y="1.67" class="f">bbiggs%</text><text x="8.016" y="1.67" class="f">ktime</text><text x="14.028" y="1.67" class="f">apply</text><text x="20.04" y="1.67" class="f">--file</text><text x="27.054" y="1.67" class="f">pod-cached.y</text></svg><svg x="3060"><use xlink:href="#a"/><use x="39.996" xlink:href="#b"/><text y="1.67" class="f">bbiggs%</text><text x="8.016" y="1.67" class="f">ktime</text><text x="14.028" y="1.67" class="f">apply</text><text x="20.04" y="1.67" class="f">--file</text><text x="27.054" y="1.67" class="f">pod-cached.ya</text></svg><svg x="3145"><use xlink:href="#a"/><use x="40.996" xlink:href="#b"/><text y="1.67" class="f">bbiggs%</text><text x="8.016" y="1.67" class="f">ktime</text><text x="14.028" y="1.67" class="f">apply</text><text x="20.04" y="1.67" class="f">--file</text><text x="27.054" y="1.67" class="f">pod-cached.yam</text></svg><svg x="3230"><use xlink:href="#a"/><use x="41.996" xlink:href="#b"/><use xlink:href="#5"/></svg><svg x="3315"><use xlink:href="#a"/><use x="41.996" xlink:href="#b"/><use xlink:href="#5"/></svg><svg x="3400"><use xlink:href="#a"/><use x="-.004" y="2.146" xlink:href="#b"/><use xlink:href="#5"/></svg><svg x="3485"><use xlink:href="#a"/><use x="-.004" y="2.146" xlink:href="#b"/><use xlink:href="#5"/></svg><svg x="3570"><use xlink:href="#a"/><use x="-.004" y="4.317" xlink:href="#b"/><use xlink:href="#5"/><use y="2.171" xlink:href="#6"/></svg><svg x="3655"><use xlink:href="#a"/><use x="-.004" y="6.488" xlink:href="#b"/><use xlink:href="#5"/><use y="2.171" xlink:href="#6"/><use y="4.342" xlink:href="#7"/></svg><svg x="3740"><use xlink:href="#a"/><use x="-.004" y="15.172" xlink:href="#b"/><use xlink:href="#5"/><use y="2.171" xlink:href="#6"/><use y="4.342" xlink:href="#7"/><use y="6.513" xlink:href="#8"/><use y="8.684" xlink:href="#9"/><use y="10.855" xlink:href="#10"/><use y="13.026" xlink:href="#11"/></svg><svg x="3825"><use xlink:href="#a"/><use x="-.004" y="15.172" xlink:href="#b"/><use xlink:href="#5"/><use y="2.171" xlink:href="#6"/><use y="4.342" xlink:href="#7"/><use y="6.513" xlink:href="#8"/><use y="8.684" xlink:href="#9"/><use y="10.855" xlink:href="#10"/><use y="13.026" xlink:href="#11"/></svg><svg x="3910"><use xlink:href="#a"/><use x="-.004" y="15.172" xlink:href="#b"/><use xlink:href="#5"/><use y="2.171" xlink:href="#6"/><use y="4.342" xlink:href="#7"/><use y="6.513" xlink:href="#8"/><use y="8.684" xlink:href="#9"/><use y="10.855" xlink:href="#10"/><use y="13.026" xlink:href="#11"/></svg><svg x="3995"><use xlink:href="#a"/><use x="-.004" y="15.172" xlink:href="#b"/><use xlink:href="#5"/><use y="2.171" xlink:href="#6"/><use y="4.342" xlink:href="#7"/><use y="6.513" xlink:href="#8"/><use y="8.684" xlink:href="#9"/><use y="10.855" xlink:href="#10"/><use y="13.026" xlink:href="#11"/></svg><svg x="4080"><use xlink:href="#a"/><use x="7.996" y="15.172" xlink:href="#b"/><use xlink:href="#5"/><use y="2.171" xlink:href="#6"/><use y="4.342" xlink:href="#7"/><use y="6.513" xlink:href="#8"/><use y="8.684" xlink:href="#9"/><use y="10.855" xlink:href="#10"/><use y="13.026" xlink:href="#11"/><use y="15.197" xlink:href="#1"/></svg><svg x="4165"><use xlink:href="#a"/><use x="7.996" y="15.172" xlink:href="#b"/><use xlink:href="#5"/><use y="2.171" xlink:href="#6"/><use y="4.342" xlink:href="#7"/><use y="6.513" xlink:href="#8"/><use y="8.684" xlink:href="#9"/><use y="10.855" xlink:href="#10"/><use y="13.026" xlink:href="#11"/><use y="15.197" xlink:href="#1"/></svg><svg x="4250"><use xlink:href="#a"/><use x="8.996" y="15.172" xlink:href="#b"/><use xlink:href="#5"/><use y="2.171" xlink:href="#6"/><use y="4.342" xlink:href="#7"/><use y="6.513" xlink:href="#8"/><use y="8.684" xlink:href="#9"/><use y="10.855" xlink:href="#10"/><use y="13.026" xlink:href="#11"/><text y="16.867" class="f">bbiggs%</text><text x="8.016" y="16.867" class="f">e</text></svg><svg x="4335"><use xlink:href="#a"/><use x="9.996" y="15.172" xlink:href="#b"/><use xlink:href="#5"/><use y="2.171" xlink:href="#6"/><use y="4.342" xlink:href="#7"/><use y="6.513" xlink:href="#8"/><use y="8.684" xlink:href="#9"/><use y="10.855" xlink:href="#10"/><use y="13.026" xlink:href="#11"/><text y="16.867" class="f">bbiggs%</text><text x="8.016" y="16.867" class="f">ex</text></svg><svg x="4420"><use xlink:href="#a"/><use x="10.996" y="15.172" xlink:href="#b"/><use xlink:href="#5"/><use y="2.171" xlink:href="#6"/><use y="4.342" xlink:href="#7"/><use y="6.513" xlink:href="#8"/><use y="8.684" xlink:href="#9"/><use y="10.855" xlink:href="#10"/><use y="13.026" xlink:href="#11"/><text y="16.867" class="f">bbiggs%</text><text x="8.016" y="16.867" class="f">exi</text></svg><svg x="4505"><use xlink:href="#a"/><use x="11.996" y="15.172" xlink:href="#b"/><use xlink:href="#5"/><use y="2.171" xlink:href="#6"/><use y="4.342" xlink:href="#7"/><use y="6.513" xlink:href="#8"/><use y="8.684" xlink:href="#9"/><use y="10.855" xlink:href="#10"/><use y="13.026" xlink:href="#11"/><use y="15.197" xlink:href="#12"/></svg><svg x="4590"><use xlink:href="#a"/><use x="11.996" y="15.172" xlink:href="#b"/><use xlink:href="#5"/><use y="2.171" xlink:href="#6"/><use y="4.342" xlink:href="#7"/><use y="6.513" xlink:href="#8"/><use y="8.684" xlink:href="#9"/><use y="10.855" xlink:href="#10"/><use y="13.026" xlink:href="#11"/><use y="15.197" xlink:href="#12"/></svg><svg x="4675"><use xlink:href="#a"/><use x="-.004" y="17.343" xlink:href="#b"/><use xlink:href="#5"/><use y="2.171" xlink:href="#6"/><use y="4.342" xlink:href="#7"/><use y="6.513" xlink:href="#8"/><use y="8.684" xlink:href="#9"/><use y="10.855" xlink:href="#10"/><use y="13.026" xlink:href="#11"/><use y="15.197" xlink:href="#12"/></svg><svg x="4760"><use xlink:href="#a"/><use x="-.004" y="17.343" xlink:href="#b"/><use xlink:href="#5"/><use y="2.171" xlink:href="#6"/><use y="4.342" xlink:href="#7"/><use y="6.513" xlink:href="#8"/><use y="8.684" xlink:href="#9"/><use y="10.855" xlink:href="#10"/><use y="13.026" xlink:href="#11"/><use y="15.197" xlink:href="#12"/></svg></svg></g></g></svg></svg>